<svg width="10" height="6" viewBox="0 0 10 6" fill="none" xmlns="http://www.w3.org/2000/svg">
<path d="M9.84016 4.74705L9.5126 5.03632C9.40951 5.12666 9.27235 5.17643 9.12577 5.17643C8.97926 5.17643 8.84194 5.12666 8.73885 5.03632L5.00224 1.7592L1.26131 5.03996C1.15838 5.1303 1.02107 5.17999 0.87456 5.17999C0.728055 5.17999 0.590655 5.1303 0.487646 5.03996L0.160001 4.75247C-0.0533338 4.56552 -0.0533338 4.261 0.160001 4.07405L4.61402 0.15386C4.71695 0.0635934 4.8541 -7.15256e-06 5.00191 -7.15256e-06H5.00362C5.1502 -7.15256e-06 5.28736 0.0636649 5.39029 0.15386L9.84016 4.06342C9.94325 4.15369 9.99984 4.27761 10 4.40609C10 4.53465 9.94325 4.65686 9.84016 4.74705Z" fill="#AAAAAA"/>
</svg>
