<svg width="32" height="32" viewBox="0 0 32 32" fill="none" xmlns="http://www.w3.org/2000/svg">
<path d="M24.972 12.288C24.608 7.657 20.723 4 16 4C11.96 4 8.492 6.624 7.372 10.451C4.181 11.559 2 14.583 2 18C2 22.411 5.589 26 10 26H23C26.859 26 30 22.86 30 19C30 15.851 27.93 13.148 24.972 12.288ZM20.707 14.707L15.707 19.707C15.512 19.902 15.256 20 15 20C14.744 20 14.488 19.902 14.293 19.707L11.293 16.707C10.902 16.316 10.902 15.684 11.293 15.293C11.684 14.902 12.316 14.902 12.707 15.293L15 17.586L19.293 13.293C19.684 12.902 20.316 12.902 20.707 13.293C21.098 13.684 21.098 14.316 20.707 14.707Z" fill="#104C81"/>
</svg>
