<svg width="32" height="32" viewBox="0 0 32 32" fill="none" xmlns="http://www.w3.org/2000/svg">
<path d="M24.972 12.288C24.608 7.657 20.723 4 16 4C11.96 4 8.492 6.624 7.373 10.451C4.181 11.559 2 14.583 2 18C2 22.411 5.589 26 10 26H23C26.86 26 30 22.86 30 19C30 15.851 27.93 13.148 24.972 12.288ZM19.707 19.293C20.098 19.684 20.098 20.316 19.707 20.707C19.316 21.098 18.684 21.098 18.293 20.707L16 18.414L13.707 20.707C13.316 21.098 12.684 21.098 12.293 20.707C11.902 20.316 11.902 19.684 12.293 19.293L14.586 17L12.293 14.707C11.902 14.316 11.902 13.684 12.293 13.293C12.684 12.902 13.316 12.902 13.707 13.293L16 15.586L18.293 13.293C18.684 12.902 19.316 12.902 19.707 13.293C20.098 13.684 20.098 14.316 19.707 14.707L17.414 17L19.707 19.293Z" fill="#DF2B2B"/>
</svg>
